<?xml version="1.0" encoding="utf-8"?>
<!-- Generator: Adobe Illustrator 20.1.0, SVG Export Plug-In . SVG Version: 6.00 Build 0)  -->
<svg version="1.1" id="Ebene_1" xmlns="http://www.w3.org/2000/svg" xmlns:xlink="http://www.w3.org/1999/xlink" x="0px" y="0px"
	 viewBox="0 0 20 20" style="enable-background:new 0 0 20 20;" xml:space="preserve">
<g>
	<path d="M18.1,7.5l-7.6,7.6c-0.1,0.1-0.3,0.2-0.5,0.2s-0.3-0.1-0.5-0.2L1.9,7.5C1.8,7.4,1.7,7.2,1.7,7s0.1-0.3,0.2-0.5l1.7-1.7
		c0.1-0.1,0.3-0.2,0.5-0.2c0.2,0,0.3,0.1,0.5,0.2l5.4,5.4l5.4-5.4c0.1-0.1,0.3-0.2,0.5-0.2c0.2,0,0.3,0.1,0.5,0.2l1.7,1.7
		c0.1,0.1,0.2,0.3,0.2,0.5S18.2,7.4,18.1,7.5z"/>
</g>
</svg>
