<?xml version="1.0" encoding="utf-8"?>
<!-- Generator: Adobe Illustrator 20.1.0, SVG Export Plug-In . SVG Version: 6.00 Build 0)  -->
<svg version="1.1" id="Ebene_1" xmlns="http://www.w3.org/2000/svg" xmlns:xlink="http://www.w3.org/1999/xlink" x="0px" y="0px"
	 viewBox="0 0 512 512" style="enable-background:new 0 0 512 512;" xml:space="preserve">
<path d="M256,4C116.8,4,4,116.8,4,256s112.8,252,252,252s252-112.8,252-252S395.2,4,256,4z M409,418.1c-24-1.2-21.3-14.8-33.3-33.4
	s-35.6-19.9-59.6-30.8c-24.1-10.9-25.7-39.7-25.7-39.7c-64.2,4.8-99.5-21.7-99.5-21.7l-7.2,9.6l-47.4-14.9
	c12,34,26.4,23.8,26.4,23.8l10.2,16.8c0,0-18.9-0.7-32.8-8s-26.8-54.1-26.8-54.1l50.3,7.9c-14.4-22.1-19.3-95.2-19.3-95.2l-42.3-8
	v-14.7l51.2-16.5l28.9-32.4l-4.8,25.2c14.4-5.6,25.7-30.1,25.7-30.1l-0.8,17.2c14.4-8.1,20.1-25.2,20.1-25.2s4,12.4-4,25.2
	c-8,12.8-45.8,25.5-45.8,25.5l26.4,5c-4,8-20.2,11.2-20.2,11.2s1.4,67.4,60,82.1c58.6,14.6,104.7,43.9,104.7,43.9
	c-8.8,59.4,33.7,66.9,33.7,66.9c23.3,53.3,32,47.7,32,47.7V418.1z"/>
</svg>
